# xmcd CD database file
#
# Track frame offsets:
#	175
#	10825
#	20825
#	31100
#	56700
#	68800
#	81650
#	91237
#	102767
#	112642
#	123682
#	135145
#	146705
#	157462
#	168477
#	178415
#	190322
#	201482
#	212092
#	221462
#	232200
#	242345
#	251415
#
# Disc length: 3514 seconds
#
# Revision: 0
# Processed by: cddbd v1.5PL3 Copyright (c) Steve Scherf et al.
# Submitted via: Feurio! 1.67 - http://www.feurio.com
#
DISCID=520db817
DTITLE=Various Artist - Best of American Oldies vol.1
DYEAR=1900
DGENRE=Popcorn
TTITLE0=Bobby Rydell - Sway
TTITLE1=Impressions - Grow Closer
TTITLE2=Pat Hervey - The Many Moods of My Baby
TTITLE3=Cannonball Aderly - Soul Samba
TTITLE4=Craig Douglass - Oh, What a Day
TTITLE5=Michel Tifany - Come Closer
TTITLE6=??? - Laurence of Arabia
TTITLE7=Ed Bruce - Greatest Man
TTITLE8=Bobby Paris - Who Needs You
TTITLE9=Carole King - Up on the Roof
TTITLE10=Walter Jackson - El Senor Joe
TTITLE11=John Price - I'll Never Let Her Go
TTITLE12=Roman Reed - Harlem Nocturne
TTITLE13=Conway Twitty - C'est si Bon
TTITLE14=Freddie Houston - If I Had Known
TTITLE15=Donna Douglas - You Lost Me
TTITLE16=Rosemary Clooney - Mambo Italiano
TTITLE17=Jerry Butler - Gypsy Woman
TTITLE18=Paul Anka - Ongni Giorno
TTITLE19=Paul Anka - Piangero per Te
TTITLE20=Bobby Rydell - Cherie
TTITLE21=Paul Evans - Hand in a Handkerchief to Helen
TTITLE22=??? - Tabu
EXTD=
EXTT0=
EXTT1=
EXTT2=
EXTT3=
EXTT4=
EXTT5=
EXTT6=
EXTT7=
EXTT8=
EXTT9=
EXTT10=
EXTT11=
EXTT12=
EXTT13=
EXTT14=
EXTT15=
EXTT16=
EXTT17=
EXTT18=
EXTT19=
EXTT20=
EXTT21=
EXTT22=
PLAYORDER=
